<svg xmlns="http://www.w3.org/2000/svg" viewBox="0 0 512 512" role="img" aria-labelledby="title desc">
  <title id="title">ResumeNova AI Resume Analyzer</title>
  <desc id="desc">Circular blue AI resume analyzer profile badge.</desc>
  <defs>
    <radialGradient id="bg" cx="50%" cy="42%" r="62%">
      <stop offset="0%" stop-color="#0d7eea"/>
      <stop offset="46%" stop-color="#053b83"/>
      <stop offset="100%" stop-color="#071837"/>
    </radialGradient>
    <linearGradient id="ring" x1="83" x2="429" y1="56" y2="456" gradientUnits="userSpaceOnUse">
      <stop stop-color="#24d4ff"/>
      <stop offset=".52" stop-color="#0c63ff"/>
      <stop offset="1" stop-color="#8d55ff"/>
    </linearGradient>
    <linearGradient id="paper" x1="144" x2="345" y1="111" y2="346" gradientUnits="userSpaceOnUse">
      <stop stop-color="#fff"/>
      <stop offset="1" stop-color="#dfe9ff"/>
    </linearGradient>
    <filter id="glow" x="-20%" y="-20%" width="140%" height="140%">
      <feGaussianBlur stdDeviation="6" result="blur"/>
      <feMerge>
        <feMergeNode in="blur"/>
        <feMergeNode in="SourceGraphic"/>
      </feMerge>
    </filter>
  </defs>
  <circle cx="256" cy="256" r="246" fill="url(#bg)"/>
  <circle cx="256" cy="256" r="236" fill="none" stroke="#f7fbff" stroke-width="8"/>
  <circle cx="256" cy="256" r="247" fill="none" stroke="url(#ring)" stroke-width="14" filter="url(#glow)"/>
  <g opacity=".72" stroke="#1fb7ff" stroke-linecap="round" stroke-width="4">
    <path d="M67 229h62l35 35h42"/>
    <path d="M84 305h55l42-42"/>
    <path d="M414 156v48l-31 31"/>
    <path d="M444 225h-47l-36 36"/>
    <path d="M119 155v49l45 45"/>
    <path d="M386 315h44"/>
    <circle cx="67" cy="229" r="5" fill="#2bdcff"/>
    <circle cx="84" cy="305" r="5" fill="#2bdcff"/>
    <circle cx="414" cy="156" r="5" fill="#2bdcff"/>
    <circle cx="444" cy="225" r="5" fill="#2bdcff"/>
    <circle cx="119" cy="155" r="5" fill="#2bdcff"/>
  </g>
  <path d="M154 92h161l55 55v218a27 27 0 0 1-27 27H154a27 27 0 0 1-27-27V119a27 27 0 0 1 27-27z" fill="url(#paper)"/>
  <path d="M315 92v39a16 16 0 0 0 16 16h39z" fill="#edf4ff"/>
  <text x="185" y="144" fill="#06296c" font-family="Arial, Helvetica, sans-serif" font-size="34" font-weight="800">RESUME</text>
  <circle cx="181" cy="185" r="24" fill="#109df8"/>
  <path d="M143 259c5-34 27-54 38-54s33 20 38 54z" fill="#0647bd"/>
  <g fill="#96ace4">
    <rect x="243" y="178" width="89" height="8" rx="4"/>
    <rect x="243" y="202" width="76" height="8" rx="4"/>
    <rect x="243" y="226" width="58" height="8" rx="4"/>
    <rect x="166" y="295" width="139" height="8" rx="4"/>
    <rect x="166" y="321" width="126" height="8" rx="4"/>
    <rect x="166" y="347" width="156" height="8" rx="4"/>
  </g>
  <g>
    <circle cx="340" cy="250" r="77" fill="#061638" stroke="#f8fbff" stroke-width="8"/>
    <circle cx="340" cy="250" r="57" fill="#09246a" stroke="#2ea8ff" stroke-width="3"/>
    <text x="294" y="273" fill="#e9fbff" stroke="#2ad1ff" stroke-width="1.5" font-family="Arial, Helvetica, sans-serif" font-size="58" font-weight="900">AI</text>
  </g>
  <g>
    <circle cx="151" cy="339" r="58" fill="#061638" stroke="#22cbff" stroke-width="12"/>
    <text x="109" y="337" fill="#fff" font-family="Arial, Helvetica, sans-serif" font-size="38" font-weight="900">92%</text>
    <text x="109" y="362" fill="#dff5ff" font-family="Arial, Helvetica, sans-serif" font-size="15" font-weight="800">ATS SCORE</text>
  </g>
  <text x="125" y="442" fill="#22caff" font-family="Arial, Helvetica, sans-serif" font-size="48" font-weight="900">AI</text>
  <text x="201" y="442" fill="#ffffff" font-family="Arial, Helvetica, sans-serif" font-size="48" font-weight="900">RESUME</text>
  <text x="162" y="478" fill="#3ecbff" font-family="Arial, Helvetica, sans-serif" font-size="20" font-weight="800" letter-spacing="10">ANALYZER</text>
</svg>
